<svg width="20" height="20" viewBox="0 0 20 20" fill="none" xmlns="http://www.w3.org/2000/svg">
<path d="M7.49992 14.1667V15C7.49992 15.663 7.76331 16.2989 8.23215 16.7678C8.70099 17.2366 9.33688 17.5 9.99992 17.5C10.663 17.5 11.2988 17.2366 11.7677 16.7678C12.2365 16.2989 12.4999 15.663 12.4999 15V14.1667M8.33325 4.16667C8.33325 3.72464 8.50885 3.30072 8.82141 2.98816C9.13397 2.67559 9.55789 2.5 9.99992 2.5C10.4419 2.5 10.8659 2.67559 11.1784 2.98816C11.491 3.30072 11.6666 3.72464 11.6666 4.16667C12.6236 4.61919 13.4394 5.32361 14.0266 6.20442C14.6138 7.08523 14.9503 8.10923 14.9999 9.16667V11.6667C15.0626 12.1848 15.2461 12.6809 15.5356 13.1151C15.8251 13.5493 16.2125 13.9095 16.6666 14.1667H3.33325C3.78737 13.9095 4.17476 13.5493 4.46424 13.1151C4.75372 12.6809 4.93721 12.1848 4.99992 11.6667V9.16667C5.04955 8.10923 5.386 7.08523 5.97321 6.20442C6.56042 5.32361 7.37624 4.61919 8.33325 4.16667Z" stroke="#1C1C1E" stroke-width="2" stroke-linecap="round" stroke-linejoin="round"/>
<path d="M7.49992 14.1667V15C7.49992 15.663 7.76331 16.2989 8.23215 16.7678C8.70099 17.2366 9.33688 17.5 9.99992 17.5C10.663 17.5 11.2988 17.2366 11.7677 16.7678C12.2365 16.2989 12.4999 15.663 12.4999 15V14.1667M8.33325 4.16667C8.33325 3.72464 8.50885 3.30072 8.82141 2.98816C9.13397 2.67559 9.55789 2.5 9.99992 2.5C10.4419 2.5 10.8659 2.67559 11.1784 2.98816C11.491 3.30072 11.6666 3.72464 11.6666 4.16667C12.6236 4.61919 13.4394 5.32361 14.0266 6.20442C14.6138 7.08523 14.9503 8.10923 14.9999 9.16667V11.6667C15.0626 12.1848 15.2461 12.6809 15.5356 13.1151C15.8251 13.5493 16.2125 13.9095 16.6666 14.1667H3.33325C3.78737 13.9095 4.17476 13.5493 4.46424 13.1151C4.75372 12.6809 4.93721 12.1848 4.99992 11.6667V9.16667C5.04955 8.10923 5.386 7.08523 5.97321 6.20442C6.56042 5.32361 7.37624 4.61919 8.33325 4.16667Z" stroke="white" stroke-opacity="0.2" stroke-width="2" stroke-linecap="round" stroke-linejoin="round"/>
</svg>
